<svg id="visual" viewBox="0 0 900 600" width="900" height="600" xmlns="http://www.w3.org/2000/svg" xmlns:xlink="http://www.w3.org/1999/xlink" version="1.1"><rect x="0" y="0" width="900" height="600" fill="#002233"></rect><path d="M0 507L13.7 491.7C27.3 476.3 54.7 445.7 82 428.8C109.3 412 136.7 409 163.8 414.8C191 420.7 218 435.3 245.2 447.3C272.3 459.3 299.7 468.7 327 475.5C354.3 482.3 381.7 486.7 409 478.8C436.3 471 463.7 451 491 435.3C518.3 419.7 545.7 408.3 573 417.7C600.3 427 627.7 457 654.8 469C682 481 709 475 736.2 464.8C763.3 454.7 790.7 440.3 818 439.8C845.3 439.3 872.7 452.7 886.3 459.3L900 466L900 601L886.3 601C872.7 601 845.3 601 818 601C790.7 601 763.3 601 736.2 601C709 601 682 601 654.8 601C627.7 601 600.3 601 573 601C545.7 601 518.3 601 491 601C463.7 601 436.3 601 409 601C381.7 601 354.3 601 327 601C299.7 601 272.3 601 245.2 601C218 601 191 601 163.8 601C136.7 601 109.3 601 82 601C54.7 601 27.3 601 13.7 601L0 601Z" fill="#0066FF" stroke-linecap="round" stroke-linejoin="miter"></path></svg>